<svg width="44" height="42" viewBox="0 0 44 42" fill="none" xmlns="http://www.w3.org/2000/svg">
<path d="M25.207 23.6523L27.3375 21.3837L28.6938 22.6575C29.3203 23.2458 29.3512 24.2306 28.7629 24.857C28.1746 25.4835 27.1898 25.5144 26.5634 24.9261L25.207 23.6523Z" fill="url(#paint0_linear_2890_2777)"/>
<path d="M25.207 23.6523L27.3375 21.3837L28.6938 22.6575C29.3203 23.2458 29.3512 24.2306 28.7629 24.857C28.1746 25.4835 27.1898 25.5144 26.5634 24.9261L25.207 23.6523Z" stroke="white"/>
<path d="M12.683 14.3827C12.7671 14.1683 12.8927 13.9726 13.0526 13.8069L16.9151 9.78467C17.0742 9.61819 17.2647 9.48477 17.4755 9.39208C17.6863 9.29939 17.9133 9.24926 18.1435 9.24456C18.3737 9.23986 18.6026 9.28069 18.817 9.3647C19.0315 9.44871 19.2271 9.57425 19.3929 9.73411L21.0544 11.3301L21.6294 10.1196L29.0316 2.65922C29.8006 1.88419 31.0491 1.86908 31.8366 2.62528L35.5016 6.14457C36.3076 6.91849 36.3231 8.20266 35.5361 8.99585L28.1801 16.4097L26.9943 17.0332L28.6557 18.6289C28.8221 18.788 28.9555 18.9784 29.0482 19.1893C29.1409 19.4001 29.191 19.6271 29.1956 19.8574C29.2003 20.0876 29.1594 20.3165 29.0754 20.5309C28.9913 20.7453 28.8658 20.941 28.7059 21.1067L24.8434 25.1293C24.6843 25.2958 24.4938 25.4292 24.283 25.5219C24.0722 25.6145 23.8451 25.6646 23.6149 25.6693C23.3846 25.674 23.1558 25.6331 22.9413 25.549C22.7269 25.465 22.5313 25.3394 22.3655 25.1795L20.7041 23.5835L20.129 24.7941L12.9598 32.2603C12.1947 33.057 10.9287 33.0827 10.132 32.3177L6.46669 28.7983C5.66993 28.0333 5.64423 26.7672 6.40928 25.9705L13.5785 18.5043L14.7642 17.8807L13.1028 16.2848C12.9363 16.1256 12.8029 15.9352 12.7102 15.7244C12.6176 15.5136 12.5674 15.2865 12.5628 15.0563C12.5581 14.826 12.599 14.5971 12.683 14.3827ZM30.2965 24.8763C30.4497 24.398 30.8329 23.9702 31.335 23.9594C31.8352 23.9487 32.2589 24.3494 32.1697 24.8417C31.8476 26.6201 30.4772 28.0559 28.7156 28.46C28.2282 28.5718 27.8084 28.1674 27.7957 27.6674C27.783 27.1653 28.1926 26.7626 28.6633 26.5873C28.7121 26.5692 28.7605 26.5495 28.8083 26.5285C29.1351 26.3848 29.4302 26.1779 29.6767 25.9197C29.9232 25.6615 30.1161 25.3571 30.2445 25.024C30.2633 24.9752 30.2806 24.926 30.2965 24.8763ZM27.8687 31.2968C27.856 30.7954 28.2548 30.3854 28.7496 30.3036C31.5439 29.8419 33.6966 27.6007 34.0333 24.811C34.0933 24.3133 34.4839 23.8961 34.985 23.8851C35.4864 23.8741 35.9071 24.2733 35.8621 24.7728C35.5222 28.5507 32.5713 31.6212 28.7963 32.1321C28.2994 32.1993 27.8813 31.798 27.8687 31.2968ZM27.9468 34.9298C27.9342 34.4282 28.3321 34.0157 28.8306 33.959C33.6357 33.4125 37.3638 29.5292 37.6926 24.7398C37.7269 24.2395 38.1202 23.8231 38.6216 23.8123C39.1229 23.8016 39.5417 24.2006 39.5141 24.7012C39.1949 30.4783 34.6603 35.1974 28.8766 35.7808C28.3775 35.8312 27.9594 35.4313 27.9468 34.9298Z" fill="url(#paint1_linear_2890_2777)"/>
<path d="M12.683 14.3827C12.7671 14.1683 12.8927 13.9726 13.0526 13.8069L16.9151 9.78467C17.0742 9.61819 17.2647 9.48477 17.4755 9.39208C17.6863 9.29939 17.9133 9.24926 18.1435 9.24456C18.3737 9.23986 18.6026 9.28069 18.817 9.3647C19.0315 9.44871 19.2271 9.57425 19.3929 9.73411L21.0544 11.3301L21.6294 10.1196L29.0316 2.65922C29.8006 1.88419 31.0491 1.86908 31.8366 2.62528L35.5016 6.14457C36.3076 6.91849 36.3231 8.20266 35.5361 8.99585L28.1801 16.4097L26.9943 17.0332L28.6557 18.6289C28.8221 18.788 28.9555 18.9784 29.0482 19.1893C29.1409 19.4001 29.191 19.6271 29.1956 19.8574C29.2003 20.0876 29.1594 20.3165 29.0754 20.5309C28.9913 20.7453 28.8658 20.941 28.7059 21.1067L24.8434 25.1293C24.6843 25.2958 24.4938 25.4292 24.283 25.5219C24.0722 25.6145 23.8451 25.6646 23.6149 25.6693C23.3846 25.674 23.1558 25.6331 22.9413 25.549C22.7269 25.465 22.5313 25.3394 22.3655 25.1795L20.7041 23.5835L20.129 24.7941L12.9598 32.2603C12.1947 33.057 10.9287 33.0827 10.132 32.3177L6.46669 28.7983C5.66993 28.0333 5.64423 26.7672 6.40928 25.9705L13.5785 18.5043L14.7642 17.8807L13.1028 16.2848C12.9363 16.1256 12.8029 15.9352 12.7102 15.7244C12.6176 15.5136 12.5674 15.2865 12.5628 15.0563C12.5581 14.826 12.599 14.5971 12.683 14.3827ZM30.2965 24.8763C30.4497 24.398 30.8329 23.9702 31.335 23.9594C31.8352 23.9487 32.2589 24.3494 32.1697 24.8417C31.8476 26.6201 30.4772 28.0559 28.7156 28.46C28.2282 28.5718 27.8084 28.1674 27.7957 27.6674C27.783 27.1653 28.1926 26.7626 28.6633 26.5873C28.7121 26.5692 28.7605 26.5495 28.8083 26.5285C29.1351 26.3848 29.4302 26.1779 29.6767 25.9197C29.9232 25.6615 30.1161 25.3571 30.2445 25.024C30.2633 24.9752 30.2806 24.926 30.2965 24.8763ZM27.8687 31.2968C27.856 30.7954 28.2548 30.3854 28.7496 30.3036C31.5439 29.8419 33.6966 27.6007 34.0333 24.811C34.0933 24.3133 34.4839 23.8961 34.985 23.8851C35.4864 23.8741 35.9071 24.2733 35.8621 24.7728C35.5222 28.5507 32.5713 31.6212 28.7963 32.1321C28.2994 32.1993 27.8813 31.798 27.8687 31.2968ZM27.9468 34.9298C27.9342 34.4282 28.3321 34.0157 28.8306 33.959C33.6357 33.4125 37.3638 29.5292 37.6926 24.7398C37.7269 24.2395 38.1202 23.8231 38.6216 23.8123C39.1229 23.8016 39.5417 24.2006 39.5141 24.7012C39.1949 30.4783 34.6603 35.1974 28.8766 35.7808C28.3775 35.8312 27.9594 35.4313 27.9468 34.9298Z" stroke="white"/>
<defs>
<linearGradient id="paint0_linear_2890_2777" x1="28.7629" y1="24.857" x2="25.688" y2="22.0545" gradientUnits="userSpaceOnUse">
<stop stop-color="white"/>
<stop offset="1" stop-color="#2256FF"/>
</linearGradient>
<linearGradient id="paint1_linear_2890_2777" x1="39" y1="43.999" x2="16.8855" y2="2.56011" gradientUnits="userSpaceOnUse">
<stop stop-color="white"/>
<stop offset="1" stop-color="#2256FF"/>
</linearGradient>
</defs>
</svg>
