<svg width="145" height="127" viewBox="0 0 145 127" fill="none" xmlns="http://www.w3.org/2000/svg">
<path fill-rule="evenodd" clip-rule="evenodd" d="M25.2796 0H25.7566V27.6642H48.6515V0H49.1285V27.6642H72.0228V0H72.4998V27.6642H95.3947V0H95.8717V27.6642H118.767V0H119.244V27.6642H145V28.1412H119.244V51.5131H145V51.9901H119.244V74.885H145V75.362H119.244V98.2569H145V98.7339H119.244V126.875H118.767V98.7339H95.8717V126.875H95.3947V98.7339H72.4998V126.875H72.0228V98.7339H49.1285V126.875H48.6515V98.7339H25.7566V126.875H25.2796V98.7339H0V98.2569H25.2796V75.362H0V74.885H25.2796V51.9901H0V51.5131H25.2796V28.1412H0V27.6642H25.2796V0ZM25.7566 98.2569H48.6515V75.362H25.7566V98.2569ZM49.1285 98.2569H72.0228V75.362H49.1285V98.2569ZM72.4998 98.2569H95.3947V75.362H72.4998V98.2569ZM95.8717 98.2569H118.767V75.362H95.8717V98.2569ZM118.767 51.9901V74.885H95.8717V51.9901H118.767ZM95.3947 51.9901V74.885H72.4998V51.9901H95.3947ZM72.0228 51.9901V74.885H49.1285V51.9901H72.0228ZM48.6515 51.9901V74.885H25.7566V51.9901H48.6515ZM25.7566 51.5131H48.6515V28.1412H25.7566V51.5131ZM49.1285 51.5131H72.0228V28.1412H49.1285V51.5131ZM72.4998 51.5131H95.3947V28.1412H72.4998V51.5131ZM95.8717 51.5131H118.767V28.1412H95.8717V51.5131Z" fill="url(#paint0_radial_3052_2400)"/>
<path d="M93.6953 13.1538C93.5586 13.3851 94.2633 15.246 95.2098 17.1806C96.209 19.2098 96.514 19.9142 96.3983 19.9142C96.251 19.9142 95.7778 19.5988 94.6945 18.7787C93.5691 17.9271 93.464 17.8745 92.9066 17.8325C92.1283 17.7799 91.5183 18.0112 91.5183 18.3582C91.5183 18.8944 91.7497 20.5345 91.9074 21.1759C92.1388 22.1222 92.6436 23.2577 93.3378 24.4352C93.6743 24.9819 93.9372 25.4656 93.9372 25.5076C93.9372 25.6233 93.506 25.5076 92.7593 25.2027C91.5603 24.7191 91.4131 24.9083 91.676 26.6011C92.0231 28.8195 92.591 30.5438 93.6112 32.4784C94.095 33.4141 94.4841 34.0344 96.2931 36.8417C97.4395 38.6185 98.1862 40.122 98.4702 41.2049C98.7752 42.3825 98.8488 44.3802 98.6279 45.6418C98.1441 48.449 96.2195 52.7492 93.6848 56.713C93.2957 57.3228 92.6436 58.4899 92.244 59.3205C91.4341 60.9922 91.2028 61.3602 89.3622 63.8625C83.0729 72.4103 80.9695 76.8577 79.5707 84.5434C78.7293 89.159 78.0246 90.8833 76.3103 92.4394C75.1955 93.4697 74.1227 93.9429 71.1674 94.7314C68.517 95.4253 67.0131 95.5725 57.8631 95.9826C50.4484 96.319 46.8305 96.5293 45.5053 96.7185C44.8112 96.8132 43.2125 96.8762 40.8251 96.8973L37.1967 96.9288L36.9863 96.4872C36.5131 95.5094 35.7032 94.9837 34.6515 94.9837C33.5472 94.9837 32.6427 95.562 32.2431 96.5188C32.0327 97.0234 32.0537 98.0328 32.2956 98.5795C32.506 99.0842 33.1055 99.6624 33.6313 99.8832C34.1362 100.094 35.1458 100.072 35.6927 99.8307C36.1975 99.6204 36.776 99.0211 36.9968 98.5059L37.1336 98.1695L43.6227 98.1064C47.1986 98.0643 51.6369 98.0328 53.4984 98.0328C56.6431 98.0328 56.8955 98.0433 57.0532 98.222C57.2846 98.4744 57.2741 98.6952 57.0532 98.8949C56.885 99.0316 55.9595 99.0631 50.2381 99.1262C46.5991 99.1578 43.5806 99.2314 43.5281 99.2839C43.3808 99.4311 44.4431 100.136 45.4738 100.577C47.43 101.418 48.6815 101.608 53.8665 101.818C61.6177 102.144 64.0367 102.554 70.8519 104.699C74.7853 105.95 80.4962 107.369 83.746 107.905C87.08 108.473 87.4691 108.494 92.5174 108.494H97.2502L98.8593 108.147C102.383 107.39 103.971 106.654 107.347 104.194C109.313 102.764 110.891 101.997 112.984 101.439C114.046 101.166 114.183 101.155 117.338 101.103C121.303 101.05 121.829 101.124 124.216 102.018C125.92 102.659 126.52 102.806 127.729 102.922L128.434 102.985L129.212 102.449C129.643 102.165 130.022 101.881 130.053 101.828C130.085 101.776 129.622 101.261 129.012 100.682C127.782 99.4942 127.098 99.1052 125.384 98.611C122.628 97.812 120.714 97.0024 119.421 96.0772C119.042 95.8038 118.19 95.0678 117.527 94.4475C115.14 92.1765 114.488 91.9137 110.081 91.5141C108.756 91.388 107.599 91.2723 107.515 91.2408C107.315 91.1777 107.42 85.6053 107.662 83.6287C108.367 77.8565 110.018 72.8098 112.584 68.5412C113.426 67.1428 114.32 65.8601 115.729 64.0412C117.696 61.5074 118.506 60.1616 119.105 58.3952C119.673 56.7235 119.757 56.0401 119.747 53.0857C119.747 50.3205 119.62 48.7645 119.073 44.4117C118.053 36.358 115.561 29.566 111.796 24.5509C110.744 23.1525 110.386 22.774 109.997 22.7004C109.534 22.5953 109.408 22.4796 109.145 21.8593C108.851 21.2179 108.325 20.7238 106.085 19.0416C102.887 16.6339 100.048 14.8991 97.8602 14.0264C96.251 13.3851 93.8531 12.8909 93.6953 13.1538ZM35.0512 95.9405C35.556 96.1087 36.0818 96.6449 36.2081 97.1181C36.5131 98.2431 35.3141 99.4311 34.2203 99.0737C33.3368 98.8003 32.8005 97.8856 33.0529 97.1075C33.2632 96.4452 33.9258 95.8879 34.5779 95.8354C34.641 95.8248 34.8513 95.8774 35.0512 95.9405Z" fill="white"/>
<path d="M11.9551 24.8454C11.4713 25.0662 10.8929 25.6655 10.6825 26.1807C10.4722 26.6853 10.4932 27.6947 10.7351 28.2414C10.9454 28.7461 11.5449 29.3243 12.0708 29.5451C12.5756 29.7554 13.5853 29.7344 14.1322 29.4925C14.637 29.2823 15.2154 28.683 15.4363 28.1468L15.5835 27.7998H22.4092C28.8773 27.7998 29.2349 27.8103 29.3927 27.9891C29.6241 28.2414 29.6136 28.4622 29.3822 28.6725C29.2139 28.8302 28.8984 28.8512 27.1105 28.8512C25.5013 28.8512 25.0386 28.8827 25.0701 28.9774C25.1017 29.051 25.4487 29.3348 25.8484 29.6082C26.248 29.8816 26.5846 30.1549 26.6056 30.218C26.6267 30.2706 26.5005 30.6386 26.3217 31.0171C26.1429 31.4061 25.9956 31.7636 25.9956 31.8266C25.9956 31.9002 26.3322 32.2893 26.7423 32.6993L27.4891 33.4563L27.2051 33.6455C27.0473 33.7507 26.5636 33.9399 26.1218 34.0661C25.6696 34.1923 23.8711 34.8757 22.1148 35.5696L18.9175 36.8313L18.5494 36.5053C18.0341 36.0532 17.5818 35.8955 16.8561 35.8955C16.0673 35.8955 15.4258 36.1689 14.963 36.6841C14.4792 37.2308 14.3215 37.6724 14.3215 38.4084C14.3215 39.1969 14.5949 39.8383 15.1103 40.3009C15.6572 40.7845 16.0989 40.9422 16.8246 40.9422C18.2549 40.9422 19.2435 40.0485 19.3592 38.6502L19.4223 37.9773L22.5775 36.7261C24.3129 36.0427 25.8168 35.4329 25.9115 35.3698C26.0377 35.2962 28.9405 35.2647 34.9142 35.2647C43.328 35.2647 43.7487 35.2752 43.9065 35.4539C44.1379 35.7063 44.1274 35.9271 43.896 36.1374C43.7172 36.2951 43.1282 36.3161 37.6382 36.3161C34.0518 36.3161 31.5698 36.3581 31.5698 36.4107C31.5698 36.5264 33.5365 37.7039 35.4611 38.7343C36.6075 39.3546 41.5927 41.7833 41.7189 41.7833C41.7294 41.7833 42.2132 41.9936 42.7706 42.2565C43.7593 42.7191 43.7908 42.7401 43.5805 42.8978C43.4543 42.9819 43.0862 43.1501 42.7601 43.2658C42.2027 43.4551 41.8451 43.4656 38.0694 43.4656H33.9887L33.0842 42.8032C32.2955 42.2249 32.2008 42.1198 32.2534 41.8885C32.4322 41.163 32.4322 40.2062 32.2534 39.7436C32.043 39.2074 31.433 38.5871 30.8756 38.3558C30.3708 38.1455 29.3611 38.1665 28.8142 38.4084C28.3094 38.6186 27.731 39.2179 27.5101 39.7436C27.2998 40.2483 27.3208 41.2576 27.5627 41.8044C27.7941 42.3511 28.5092 43.003 29.0456 43.1607C29.4242 43.2763 30.4129 43.2448 30.9598 43.0976C31.2017 43.0345 31.4015 43.1396 32.3375 43.823L33.4418 44.6221H46.8618H60.2819V45.1478V45.6735H55.2336C52.2572 45.6735 50.1853 45.7155 50.1853 45.7681C50.1853 45.8207 50.5008 46.0415 50.9005 46.2623C52.4465 47.1244 54.8129 48.7436 54.8129 48.9433C54.8129 48.9959 54.6236 49.1326 54.3922 49.2482C54.0872 49.4059 53.7717 49.4585 53.1827 49.4585H52.3834L52.1941 49.0064C51.9837 48.5123 51.3843 47.934 50.8584 47.7132C50.3536 47.5029 49.3439 47.5239 48.797 47.7658C48.2922 47.976 47.7137 48.5753 47.4929 49.101C47.2825 49.6057 47.3036 50.615 47.5455 51.1618C47.7558 51.6664 48.3553 52.2447 48.8812 52.4655C49.386 52.6758 50.3956 52.6547 50.9425 52.4129C51.4789 52.1816 51.8681 51.7821 52.2151 51.1407L52.4675 50.6676L62.2275 50.6361C72.871 50.615 72.4819 50.594 72.4819 51.1933C72.4819 51.7821 72.6186 51.7716 65.2565 51.7716C61.5439 51.7716 58.4834 51.8031 58.4624 51.8452C58.4308 51.8977 58.7569 52.3078 59.1881 52.7704C59.6193 53.233 59.9663 53.6746 59.9663 53.7482C59.9663 53.8218 59.6508 54.0321 59.2512 54.2213L58.5465 54.5578L53.6981 54.5893L48.8601 54.6209L47.2931 52.8755C46.4306 51.9083 45.6313 51.0566 45.5156 50.9725C45.3368 50.8569 44.7058 50.8253 42.1186 50.8253H38.9318L38.7951 50.4784C38.6268 50.0788 37.9853 49.4901 37.5015 49.2903C36.9967 49.08 35.987 49.101 35.4401 49.3429C34.9353 49.5531 34.3568 50.1524 34.136 50.6781C33.9256 51.1828 33.9467 52.1921 34.1886 52.7389C34.3989 53.2435 34.9984 53.8218 35.5242 54.0426C36.0291 54.2529 37.0387 54.2318 37.5856 53.99C38.143 53.7587 38.7846 53.0438 38.9529 52.4865L39.0686 52.087H41.9713H44.8741L46.1151 53.4748C46.7987 54.2318 47.3351 54.9047 47.3141 54.9678C47.2931 55.0309 46.052 55.5671 44.5586 56.1559L41.8451 57.2283L41.477 56.9024C40.9617 56.4503 40.5094 56.2926 39.7837 56.2926C38.9949 56.2926 38.3534 56.5659 37.8906 57.0811C37.4068 57.6278 37.2491 58.0694 37.2491 58.8054C37.2491 59.5939 37.5225 60.2353 38.0379 60.6979C38.5848 61.1816 39.0265 61.3393 39.7522 61.3393C41.1825 61.3393 42.1712 60.4456 42.2868 59.0472L42.3499 58.3743L45.5051 57.1232C47.2405 56.4398 48.7444 55.83 48.8391 55.7669C48.9653 55.6933 51.8681 55.6617 57.8419 55.6617C66.2557 55.6617 66.6763 55.6722 66.8341 55.851C67.0655 56.1033 67.055 56.3241 66.8236 56.5344C66.6553 56.6921 66.3398 56.7131 64.5729 56.7131C63.4476 56.7131 62.501 56.7447 62.4589 56.7762C62.4274 56.8183 62.5325 57.0391 62.6903 57.2809C63.1741 57.9748 64.3836 60.1091 64.3836 60.2563C64.3836 60.3299 64.0996 60.5297 63.7526 60.7084L63.132 61.0238H60.0189H56.9058L56.7165 60.5717C56.5062 60.0776 55.9067 59.4993 55.3808 59.2785C54.876 59.0682 53.8663 59.0893 53.3194 59.3311C52.8146 59.5414 52.2362 60.1407 52.0153 60.6664C51.805 61.171 51.826 62.1804 52.0679 62.7271C52.2782 63.2318 52.8777 63.81 53.4036 64.0308C53.9084 64.2411 54.9181 64.2201 55.465 63.9783C56.0013 63.747 56.3905 63.3474 56.7375 62.7061L56.99 62.2329L66.75 62.2014C77.3934 62.1804 77.0043 62.1593 77.0043 62.7586C77.0043 63.3369 77.0043 63.3369 71.3039 63.3369C68.1908 63.3369 66.0558 63.379 66.0138 63.4315C65.9822 63.4841 66.1084 63.9047 66.2872 64.3568C66.9813 66.0916 67.6439 67.9841 67.5913 68.0787C67.4651 68.2679 66.5712 68.7306 65.8455 68.9724L65.0988 69.2247H57.5894H50.0801L49.1756 68.5623C48.3868 67.9841 48.2922 67.8789 48.3448 67.6476C48.5236 66.9222 48.5236 65.9654 48.3448 65.5028C48.1344 64.9666 47.5244 64.3462 46.967 64.1149C46.4622 63.9047 45.4525 63.9257 44.9056 64.1675C44.4008 64.3778 43.8224 64.9771 43.6015 65.5028C43.3912 66.0074 43.4122 67.0168 43.6541 67.5635C43.8855 68.1102 44.6006 68.7621 45.137 68.9198C45.5156 69.0355 46.5043 69.0039 47.0512 68.8567C47.2931 68.7936 47.5034 68.9093 48.5025 69.6348L49.6805 70.4864H50.6165C51.1318 70.4864 51.5525 70.5179 51.5525 70.56C51.5525 70.602 51.3527 70.949 51.1213 71.3485L50.6901 72.0635H47.6927H44.7058L44.5165 71.6114C44.3062 71.1172 43.7067 70.539 43.1808 70.3182C42.676 70.1079 41.6663 70.1289 41.1194 70.3707C40.6146 70.581 40.0361 71.1803 39.8153 71.706C39.6049 72.2107 39.626 73.22 39.8679 73.7667C40.0782 74.2714 40.6777 74.8497 41.2036 75.0705C41.7084 75.2807 42.718 75.2597 43.2649 75.0179C43.7698 74.8076 44.3482 74.2083 44.5691 73.6721L44.7163 73.3251H48.0293C51.2055 73.3251 51.3527 73.3146 51.5525 73.1149C51.6682 72.9992 51.7629 72.8625 51.7629 72.81C51.7629 72.6312 53.0355 70.6441 53.2669 70.4654C53.4772 70.2971 54.1608 70.2761 63.132 70.2761C72.3346 70.2761 72.7764 70.2866 72.9341 70.4654C73.1655 70.7177 73.155 70.9385 72.9236 71.1488C72.7553 71.3065 72.4398 71.3275 70.7676 71.3275C69.6948 71.3275 68.7903 71.3696 68.7588 71.4116C68.7272 71.4642 68.8219 71.8953 68.9691 72.3894C69.3477 73.6721 69.3267 73.7142 68.3381 74.2188L67.4967 74.6394L64.8884 74.6709L62.2801 74.7025L62.0803 74.2504C61.87 73.7457 61.2705 73.1674 60.7446 72.9466C60.2398 72.7364 59.2301 72.7574 58.6832 72.9992C58.1784 73.2095 57.6 73.8088 57.3791 74.3345C57.1688 74.8392 57.1898 75.8485 57.4317 76.3952C57.642 76.8999 58.2415 77.4782 58.7674 77.6989C59.2722 77.9092 60.2819 77.8882 60.8288 77.6464C61.3651 77.4151 61.7543 77.0155 62.1013 76.3742L62.3538 75.9011L68.5379 75.8695C75.2689 75.8485 75.2164 75.838 75.2164 76.4162C75.2164 76.9104 75.027 76.9525 72.545 77.005L70.2207 77.0576L70.2522 77.5938C70.2838 78.0985 70.2627 78.1616 69.9788 78.3613C69.8 78.477 69.3688 78.7188 69.0007 78.8975L68.3276 79.213H60.6184H52.9093L52.72 78.7609C52.5096 78.2667 51.9101 77.6884 51.3843 77.4676C50.8794 77.2574 49.8698 77.2784 49.3229 77.5202C48.8181 77.7305 48.2396 78.3298 48.0187 78.8555C47.8084 79.3601 47.8294 80.3695 48.0713 80.9162C48.2817 81.4209 48.8812 81.9991 49.407 82.2199C49.9118 82.4302 50.9215 82.4092 51.4684 82.1674C52.0048 81.9361 52.3939 81.5365 52.741 80.8952L52.9934 80.4221H62.9743H72.9551V80.9477V81.4734L72.0612 81.505C71.5669 81.526 71.1357 81.5681 71.0831 81.6206C71.041 81.6627 71.0831 82.2094 71.1777 82.8192C71.2724 83.429 71.325 84.0073 71.2934 84.0914C71.2619 84.1755 70.8201 84.4489 70.3153 84.7012L69.4003 85.1533L63.111 85.2059C58.7043 85.2374 56.7901 85.29 56.706 85.3741C56.6429 85.4372 56.3169 85.9629 55.9908 86.5307L55.3913 87.5715L54.7077 87.6241C53.8453 87.6977 53.3825 87.908 52.9303 88.4126C52.4465 88.9594 52.2887 89.401 52.2887 90.1369C52.2887 91.2094 52.8777 92.1241 53.8243 92.5236C54.3291 92.7339 55.3388 92.7128 55.8856 92.471C56.3905 92.2607 56.9689 91.6615 57.1898 91.1358C57.5053 90.3788 57.2739 88.8858 56.7691 88.4757C56.6744 88.4021 56.6008 88.2654 56.6008 88.1813C56.6008 88.0131 57.2844 86.7304 57.5263 86.436C57.6736 86.2678 58.2415 86.2573 66.6869 86.2573C74.6695 86.2573 75.7212 86.2783 75.9315 86.4255C76.2155 86.6148 76.226 86.8986 75.9736 87.1299C75.8158 87.2771 75.4582 87.3087 73.786 87.3297L71.7982 87.3613L71.8298 87.7292C71.8929 88.5073 72.1769 90.589 72.282 91.0832C72.4608 91.9243 72.5345 91.9769 73.2076 91.714C74.0384 91.3986 74.3329 91.2304 74.8167 90.7993C75.942 89.79 76.552 88.1919 77.2251 84.554C78.0981 79.7281 78.9395 77.0155 80.6853 73.3777C82.0631 70.4969 84.4189 66.7224 87.0798 63.1582C88.7941 60.8556 89.5619 59.6991 90.0667 58.6477C90.4874 57.7855 90.4874 57.7645 90.3086 57.4912C90.0352 57.0706 88.2683 55.3673 86.7958 54.1057C83.2726 51.0671 79.5915 48.5333 72.7448 44.4223C67.2863 41.142 63.9208 39.3756 59.2827 37.3254C53.2774 34.6654 39.7417 29.6292 32.5689 27.3687C30.1605 26.6117 30.5917 26.6433 22.7142 26.6433H15.6046L15.4153 26.1701C15.2154 25.6444 14.5949 25.0241 14.048 24.7928C13.5642 24.5931 12.4704 24.6141 11.9551 24.8454ZM13.4906 25.6024C13.9954 25.7706 14.5213 26.3068 14.6475 26.7799C14.9525 27.9049 13.7535 29.093 12.6597 28.7355C11.7763 28.4622 11.2399 27.5475 11.4923 26.7694C11.7027 26.1071 12.3653 25.5498 13.0173 25.4972C13.0804 25.4867 13.2908 25.5393 13.4906 25.6024ZM17.2768 36.8523C17.7816 37.0205 18.3075 37.5567 18.4337 38.0299C18.7387 39.1549 17.5398 40.3429 16.446 39.9855C15.5625 39.7121 15.0261 38.7974 15.2785 38.0193C15.4889 37.357 16.1515 36.7997 16.8035 36.7472C16.8666 36.7366 17.077 36.7892 17.2768 36.8523ZM30.3182 39.1654C30.823 39.3336 31.3489 39.8698 31.4751 40.3429C31.7801 41.4679 30.5811 42.656 29.4873 42.2985C28.6039 42.0252 28.0675 41.1104 28.3199 40.3324C28.5303 39.67 29.1929 39.1128 29.8449 39.0602C29.908 39.0497 30.1184 39.1023 30.3182 39.1654ZM63.7736 44.8008C64.0155 45.0216 64.0155 45.274 63.7631 45.5053C63.6053 45.6525 63.3844 45.6735 62.48 45.6525L61.3862 45.6209L61.3546 45.274C61.2915 44.6431 61.3231 44.6221 62.501 44.6221C63.3529 44.6221 63.6158 44.6536 63.7736 44.8008ZM50.301 48.5228C50.8058 48.691 51.3317 49.2272 51.4579 49.7003C51.7629 50.8253 50.5639 52.0134 49.4701 51.6559C48.5867 51.3826 48.0503 50.4678 48.3027 49.6898C48.5131 49.0274 49.1756 48.4702 49.8277 48.4176C49.8908 48.4071 50.1012 48.4597 50.301 48.5228ZM36.9441 50.0999C37.4489 50.2681 37.9748 50.8043 38.101 51.2774C38.406 52.4024 37.207 53.5905 36.1132 53.233C35.2298 52.9597 34.6934 52.0449 34.9458 51.2669C35.1561 50.6045 35.8187 50.0473 36.4708 49.9947C36.5339 49.9842 36.7443 50.0368 36.9441 50.0999ZM40.2044 57.2493C40.7093 57.4176 41.2351 57.9538 41.3613 58.4269C41.6663 59.5519 40.4674 60.74 39.3736 60.3825C38.4901 60.1091 37.9537 59.1944 38.2061 58.4164C38.4165 57.754 39.0791 57.1968 39.7311 57.1442C39.7943 57.1337 40.0046 57.1863 40.2044 57.2493ZM54.8234 60.0881C55.3282 60.2563 55.8541 60.7925 55.9803 61.2657C56.2853 62.3907 55.0863 63.5787 53.9925 63.2213C53.1091 62.9479 52.5727 62.0332 52.8251 61.2551C53.0355 60.5928 53.6981 60.0355 54.3501 59.983C54.4132 59.9724 54.6236 60.025 54.8234 60.0881ZM46.4096 64.9245C46.9144 65.0927 47.4403 65.6289 47.5665 66.1021C47.8715 67.2271 46.6725 68.4151 45.5787 68.0577C44.6953 67.7843 44.1589 66.8696 44.4113 66.0916C44.6217 65.4292 45.2843 64.8719 45.9363 64.8194C45.9994 64.8089 46.2098 64.8614 46.4096 64.9245ZM79.1288 70.4548C79.3707 70.6756 79.3707 70.928 79.1288 71.1593C78.95 71.3065 78.645 71.3275 76.4679 71.3065L74.0069 71.2749L73.9753 70.928C73.9122 70.2551 73.8176 70.2761 76.4889 70.2761C78.6134 70.2761 78.9605 70.2971 79.1288 70.4548ZM42.6234 71.1277C43.1282 71.296 43.6541 71.8322 43.7803 72.3053C44.0853 73.4303 42.8863 74.6184 41.7925 74.2609C40.9091 73.9875 40.3727 73.0728 40.6251 72.2948C40.8355 71.6324 41.498 71.0752 42.1501 71.0226C42.2132 71.0121 42.4236 71.0647 42.6234 71.1277ZM60.1872 73.7562C60.692 73.9244 61.2179 74.4607 61.3441 74.9338C61.6491 76.0588 60.4501 77.2468 59.3563 76.8894C58.4729 76.616 57.9365 75.7013 58.1889 74.9233C58.3993 74.2609 59.0619 73.7036 59.7139 73.6511C59.777 73.6406 59.9874 73.6931 60.1872 73.7562ZM50.8268 78.2772C51.3317 78.4454 51.8575 78.9816 51.9837 79.4548C52.2887 80.5798 51.0898 81.7678 49.996 81.4104C49.1125 81.137 48.5762 80.2223 48.8286 79.4443C49.0389 78.7819 49.7015 78.2246 50.3536 78.1721C50.4167 78.1616 50.627 78.2141 50.8268 78.2772ZM76.9201 80.5482C77.162 80.769 77.162 81.0213 76.9096 81.2527C76.7519 81.3998 76.531 81.4209 75.6265 81.3998L74.5327 81.3683L74.5012 81.0213C74.4381 80.3905 74.4696 80.3695 75.6476 80.3695C76.4995 80.3695 76.7624 80.401 76.9201 80.5482ZM55.2441 88.5809C55.7489 88.7491 56.2748 89.2853 56.401 89.7584C56.706 90.8834 55.507 92.0715 54.4132 91.714C53.5298 91.4407 52.9934 90.5259 53.2458 89.7479C53.4562 89.0855 54.1187 88.5283 54.7708 88.4757C54.8339 88.4652 55.0443 88.5178 55.2441 88.5809Z" fill="white"/>
<defs>
<radialGradient id="paint0_radial_3052_2400" cx="0" cy="0" r="1" gradientUnits="userSpaceOnUse" gradientTransform="translate(72.5 63.4375) rotate(90) scale(63.4375 72.5)">
<stop stop-color="white" stop-opacity="0.65"/>
<stop offset="1" stop-color="#838AA7" stop-opacity="0"/>
</radialGradient>
</defs>
</svg>
