<svg width="256" height="205" viewBox="0 0 256 205" fill="none" xmlns="http://www.w3.org/2000/svg">
<path d="M177.436 2.5788C177.149 3.06374 178.626 6.96538 180.611 11.0213C182.706 15.2756 183.345 16.7525 183.102 16.7525C182.794 16.7525 181.801 16.0912 179.53 14.3718C177.171 12.5863 176.951 12.4761 175.782 12.3879C174.15 12.2777 172.871 12.7627 172.871 13.4901C172.871 14.6143 173.356 18.053 173.687 19.3976C174.172 21.3815 175.231 23.7621 176.686 26.231C177.392 27.3772 177.943 28.3912 177.943 28.4794C177.943 28.7218 177.039 28.4793 175.473 27.8401C172.959 26.8261 172.651 27.2229 173.202 30.7718C173.93 35.4229 175.12 39.0379 177.259 43.0939C178.274 45.0557 179.089 46.3562 182.882 52.2417C185.285 55.967 186.851 59.1191 187.446 61.3896C188.086 63.8584 188.24 68.0466 187.777 70.6917C186.763 76.5772 182.728 85.5928 177.414 93.903C176.598 95.1815 175.231 97.6283 174.393 99.3697C172.695 102.875 172.21 103.646 168.351 108.892C155.165 126.813 150.755 136.137 147.823 152.251C146.059 161.928 144.581 165.543 140.987 168.805C138.65 170.965 136.401 171.957 130.205 173.611C124.648 175.065 121.495 175.374 102.311 176.234C86.7662 176.939 79.181 177.38 76.4027 177.777C74.9474 177.975 71.5958 178.107 66.5905 178.151L58.9832 178.218L58.5422 177.292C57.55 175.242 55.8521 174.14 53.6471 174.14C51.3319 174.14 49.4356 175.352 48.5977 177.358C48.1567 178.416 48.2008 180.532 48.708 181.678C49.149 182.736 50.4058 183.949 51.5083 184.412C52.5667 184.852 54.6835 184.808 55.8301 184.301C56.8885 183.861 58.1012 182.604 58.5643 181.524L58.8509 180.819L72.4558 180.686C79.9527 180.598 89.2578 180.532 93.1607 180.532C99.7536 180.532 100.283 180.554 100.614 180.929C101.099 181.458 101.077 181.921 100.614 182.34C100.261 182.626 98.3204 182.692 86.3252 182.825C78.6959 182.891 72.3676 183.045 72.2573 183.155C71.9486 183.464 74.1757 184.941 76.3366 185.866C80.4378 187.63 83.0618 188.027 93.9324 188.468C110.183 189.151 115.255 190.011 129.543 194.507C137.79 197.13 149.763 200.106 156.576 201.23C163.566 202.421 164.382 202.465 174.966 202.465H184.889L188.262 201.737C195.649 200.15 198.978 198.607 206.056 193.449C210.18 190.451 213.487 188.842 217.875 187.674C220.102 187.101 220.389 187.079 227.004 186.969C235.317 186.858 236.419 187.013 241.425 188.886C244.997 190.231 246.254 190.54 248.789 190.782L250.267 190.914L251.898 189.79C252.802 189.195 253.596 188.6 253.662 188.49C253.728 188.379 252.758 187.299 251.479 186.087C248.9 183.596 247.466 182.78 243.872 181.744C238.095 180.069 234.082 178.372 231.37 176.432C230.576 175.859 228.79 174.316 227.401 173.015C222.395 168.254 221.028 167.703 211.789 166.865C209.011 166.601 206.586 166.358 206.409 166.292C205.99 166.16 206.211 154.477 206.718 150.333C208.195 138.232 211.657 127.651 217.037 118.701C218.801 115.77 220.676 113.08 223.63 109.267C227.754 103.955 229.451 101.133 230.708 97.4299C231.899 93.925 232.075 92.4923 232.053 86.2982C232.053 80.5009 231.789 77.2385 230.642 68.1127C228.503 51.2277 223.277 36.9879 215.384 26.4734C213.179 23.5417 212.429 22.7482 211.613 22.5939C210.643 22.3734 210.378 22.131 209.827 20.8304C209.21 19.4858 208.107 18.4498 203.41 14.9229C196.707 9.87505 190.754 6.23793 186.167 4.40837C182.794 3.06374 177.766 2.02773 177.436 2.5788ZM54.485 176.145C55.5434 176.498 56.6459 177.622 56.9105 178.614C57.55 180.973 55.0363 183.464 52.7431 182.714C50.8909 182.141 49.7664 180.223 50.2956 178.592C50.7366 177.204 52.1257 176.035 53.4928 175.925C53.6251 175.903 54.0661 176.013 54.485 176.145Z" fill="white"/>
<path d="M6.0636 27.0916C5.04931 27.5545 3.83656 28.8109 3.39556 29.8911C2.95456 30.9491 2.99866 33.0652 3.50581 34.2115C3.94681 35.2695 5.20365 36.4819 6.30615 36.9448C7.36455 37.3857 9.48135 37.3416 10.6279 36.8346C11.6863 36.3937 12.8991 35.1373 13.3621 34.0131L13.6708 33.2857H27.9813C41.542 33.2857 42.2917 33.3077 42.6224 33.6824C43.1075 34.2115 43.0855 34.6744 42.6004 35.1152C42.2476 35.4459 41.5861 35.49 37.8376 35.49C34.4639 35.49 33.4938 35.5561 33.5599 35.7545C33.6261 35.9088 34.3537 36.504 35.1916 37.0771C36.0295 37.6502 36.7351 38.2233 36.7792 38.3556C36.8233 38.4658 36.5587 39.2373 36.1838 40.0308C35.809 40.8464 35.5003 41.5959 35.5003 41.7282C35.5003 41.8825 36.2059 42.698 37.0658 43.5577L38.6314 45.1448L38.036 45.5416C37.7053 45.762 36.691 46.1588 35.7649 46.4233C34.8167 46.6878 31.0462 48.1206 27.3639 49.5755L20.6607 52.2206L19.8889 51.5373C18.8085 50.5894 17.8603 50.2588 16.3389 50.2588C14.6851 50.2588 13.3401 50.8319 12.3699 51.912C11.3556 53.0583 11.0248 53.9841 11.0248 55.5271C11.0248 57.1803 11.5981 58.5249 12.6786 59.4948C13.8252 60.5088 14.7513 60.8394 16.2727 60.8394C19.2715 60.8394 21.3442 58.9658 21.5868 56.0341L21.7191 54.6233L28.3341 52.0002C31.9723 50.5674 35.1255 49.2889 35.3239 49.1566C35.5885 49.0023 41.6743 48.9362 54.1987 48.9362C71.8386 48.9362 72.7206 48.9583 73.0514 49.333C73.5365 49.862 73.5144 50.3249 73.0293 50.7658C72.6545 51.0964 71.4197 51.1405 59.9096 51.1405C52.3906 51.1405 47.1868 51.2287 47.1868 51.3389C47.1868 51.5814 51.3101 54.0502 55.3453 56.2104C57.7487 57.5109 68.2004 62.6029 68.465 62.6029C68.487 62.6029 69.5013 63.0437 70.67 63.5948C72.7427 64.5647 72.8088 64.6088 72.3678 64.9394C72.1032 65.1158 71.3315 65.4685 70.6479 65.711C69.4793 66.1077 68.7296 66.1298 60.8136 66.1298H52.2583L50.362 64.7411C48.7082 63.5287 48.5098 63.3083 48.62 62.8233C48.9949 61.3023 48.9949 59.2964 48.62 58.3265C48.179 57.2023 46.9001 55.9018 45.7315 55.4169C44.6731 54.976 42.5563 55.0201 41.4097 55.5271C40.3513 55.9679 39.1385 57.2244 38.6755 58.3265C38.2345 59.3846 38.2786 61.5007 38.7857 62.647C39.2708 63.7932 40.7702 65.1599 41.8948 65.4905C42.6886 65.733 44.7613 65.6669 45.9079 65.3583C46.415 65.226 46.834 65.4464 48.7964 66.8792L51.1117 68.5545H79.2474H107.383V69.6567V70.7588H96.7992C90.559 70.7588 86.2152 70.847 86.2152 70.9572C86.2152 71.0674 86.8767 71.5303 87.7146 71.9932C90.9559 73.8007 95.9172 77.1954 95.9172 77.6142C95.9172 77.7244 95.5203 78.011 95.0352 78.2534C94.3957 78.5841 93.7342 78.6943 92.4994 78.6943H90.8236L90.4267 77.7464C89.9857 76.7104 88.7289 75.498 87.6264 75.0351C86.568 74.5943 84.4512 74.6384 83.3046 75.1454C82.2462 75.5862 81.0335 76.8427 80.5704 77.9448C80.1294 79.0029 80.1735 81.119 80.6807 82.2653C81.1217 83.3233 82.3785 84.5357 83.481 84.9986C84.5394 85.4395 86.6562 85.3954 87.8028 84.8884C88.9273 84.4034 89.7432 83.5658 90.4708 82.2212L91 81.2292L111.462 81.1631C133.777 81.119 132.961 81.0749 132.961 82.3314C132.961 83.5658 133.248 83.5438 117.813 83.5438C110.029 83.5438 103.613 83.6099 103.569 83.6981C103.502 83.8083 104.186 84.6679 105.09 85.6378C105.994 86.6077 106.722 87.5335 106.722 87.6878C106.722 87.8421 106.06 88.283 105.222 88.6798L103.745 89.3852L93.5799 89.4513L83.4369 89.5174L80.1515 85.8583C78.3434 83.8303 76.6676 82.0448 76.425 81.8685C76.0502 81.626 74.7272 81.5599 69.3029 81.5599H62.6217L62.3351 80.8325C61.9823 79.9948 60.6372 78.7604 59.6229 78.3416C58.5646 77.9007 56.4478 77.9448 55.3012 78.4518C54.2428 78.8927 53.03 80.1491 52.567 81.2513C52.126 82.3093 52.1701 84.4255 52.6772 85.5717C53.1182 86.6298 54.3751 87.8421 55.4776 88.305C56.536 88.7459 58.6528 88.7018 59.7994 88.1948C60.968 87.7099 62.313 86.211 62.6658 85.0427L62.9084 84.205H68.9942H75.08L77.6819 87.1147C79.1151 88.7018 80.2397 90.1126 80.1956 90.2448C80.1515 90.3771 77.5496 91.5013 74.4185 92.7357L68.7296 94.9841L67.9578 94.3007C66.8774 93.3529 65.9292 93.0222 64.4078 93.0222C62.754 93.0222 61.409 93.5954 60.4388 94.6755C59.4245 95.8217 59.0938 96.7475 59.0938 98.2905C59.0938 99.9438 59.667 101.288 60.7475 102.258C61.8941 103.272 62.8202 103.603 64.3416 103.603C67.3404 103.603 69.4131 101.729 69.6557 98.7975L69.788 97.3868L76.403 94.7636C80.0412 93.3308 83.1944 92.0524 83.3928 91.9201C83.6574 91.7658 89.7432 91.6997 102.268 91.6997C119.908 91.6997 120.79 91.7217 121.12 92.0964C121.605 92.6255 121.583 93.0884 121.098 93.5292C120.745 93.8599 120.084 93.904 116.38 93.904C114.02 93.904 112.036 93.9701 111.948 94.0362C111.881 94.1244 112.102 94.5873 112.433 95.0943C113.447 96.5491 115.983 101.024 115.983 101.332C115.983 101.487 115.387 101.906 114.66 102.28L113.359 102.942H106.832H100.305L99.9082 101.994C99.4672 100.958 98.2104 99.7454 97.1079 99.2825C96.0495 98.8416 93.9327 98.8857 92.7861 99.3927C91.7277 99.8335 90.5149 101.09 90.0519 102.192C89.6109 103.25 89.655 105.366 90.1621 106.513C90.6031 107.571 91.86 108.783 92.9625 109.246C94.0209 109.687 96.1377 109.643 97.2843 109.136C98.4088 108.651 99.2247 107.813 99.9523 106.468L100.482 105.477L120.944 105.41C143.258 105.366 142.443 105.322 142.443 106.579C142.443 107.791 142.443 107.791 130.492 107.791C123.965 107.791 119.489 107.879 119.4 107.989C119.334 108.1 119.599 108.981 119.974 109.929C121.429 113.566 122.818 117.534 122.708 117.732C122.443 118.129 120.569 119.099 119.048 119.606L117.482 120.135H101.738H85.9947L84.0984 118.746C82.4447 117.534 82.2462 117.314 82.3565 116.829C82.7313 115.308 82.7313 113.302 82.3565 112.332C81.9155 111.208 80.6366 109.907 79.4679 109.422C78.4095 108.981 76.2927 109.025 75.1461 109.532C74.0877 109.973 72.875 111.23 72.4119 112.332C71.9709 113.39 72.015 115.506 72.5222 116.652C73.0073 117.799 74.5067 119.165 75.6312 119.496C76.425 119.738 78.4977 119.672 79.6443 119.364C80.1515 119.231 80.5925 119.474 82.6872 120.995L85.1568 122.78H87.1192C88.1997 122.78 89.0817 122.846 89.0817 122.935C89.0817 123.023 88.6627 123.75 88.1776 124.588L87.2736 126.087H80.9894H74.7272L74.3303 125.139C73.8893 124.103 72.6324 122.891 71.5299 122.428C70.4715 121.987 68.3547 122.031 67.2081 122.538C66.1497 122.979 64.937 124.235 64.4739 125.337C64.0329 126.395 64.077 128.511 64.5842 129.658C65.0252 130.716 66.282 131.928 67.3845 132.391C68.4429 132.832 70.5597 132.788 71.7063 132.281C72.7647 131.84 73.9775 130.584 74.4405 129.459L74.7492 128.732H81.695C88.354 128.732 88.6627 128.71 89.0817 128.291C89.3242 128.049 89.5227 127.762 89.5227 127.652C89.5227 127.277 92.1907 123.111 92.6758 122.736C93.1168 122.384 94.5501 122.339 113.359 122.339C132.652 122.339 133.579 122.361 133.909 122.736C134.394 123.265 134.372 123.728 133.887 124.169C133.534 124.5 132.873 124.544 129.367 124.544C127.118 124.544 125.222 124.632 125.155 124.72C125.089 124.83 125.288 125.734 125.596 126.77C126.39 129.459 126.346 129.548 124.273 130.606L122.509 131.487L117.041 131.553L111.573 131.62L111.154 130.672C110.713 129.614 109.456 128.401 108.353 127.938C107.295 127.498 105.178 127.542 104.032 128.049C102.973 128.489 101.76 129.746 101.297 130.848C100.856 131.906 100.9 134.022 101.408 135.168C101.849 136.227 103.105 137.439 104.208 137.902C105.266 138.343 107.383 138.299 108.53 137.792C109.654 137.307 110.47 136.469 111.198 135.124L111.727 134.132L124.692 134.066C138.804 134.022 138.694 134 138.694 135.213C138.694 136.249 138.297 136.337 133.093 136.447L128.22 136.557L128.287 137.681C128.353 138.739 128.309 138.872 127.713 139.291C127.338 139.533 126.434 140.04 125.663 140.415L124.251 141.076H108.089H91.9261L91.5292 140.128C91.0882 139.092 89.8314 137.88 88.7289 137.417C87.6705 136.976 85.5537 137.02 84.4071 137.527C83.3487 137.968 82.136 139.224 81.6729 140.327C81.2319 141.385 81.276 143.501 81.7832 144.647C82.2242 145.705 83.481 146.917 84.5835 147.38C85.6419 147.821 87.7587 147.777 88.9053 147.27C90.0298 146.785 90.8457 145.948 91.5733 144.603L92.1025 143.611H113.028H133.953V144.713V145.815L132.079 145.881C131.043 145.925 130.139 146.014 130.028 146.124C129.94 146.212 130.028 147.358 130.227 148.637C130.425 149.915 130.536 151.128 130.469 151.304C130.403 151.48 129.477 152.053 128.419 152.582L126.5 153.53L113.315 153.641C104.076 153.707 100.063 153.817 99.8862 153.993C99.7539 154.125 99.0703 155.228 98.3868 156.418L97.1299 158.6L95.6967 158.71C93.8886 158.865 92.9184 159.306 91.9702 160.364C90.9559 161.51 90.6252 162.436 90.6252 163.979C90.6252 166.227 91.86 168.145 93.8445 168.982C94.9029 169.423 97.0197 169.379 98.1663 168.872C99.2247 168.431 100.437 167.175 100.9 166.073C101.562 164.486 101.077 161.356 100.018 160.496C99.82 160.342 99.6657 160.055 99.6657 159.879C99.6657 159.526 101.099 156.837 101.606 156.22C101.915 155.867 103.105 155.845 120.812 155.845C137.548 155.845 139.753 155.889 140.193 156.198C140.789 156.594 140.811 157.189 140.282 157.674C139.951 157.983 139.201 158.049 135.695 158.093L131.528 158.159L131.594 158.931C131.726 160.562 132.322 164.927 132.542 165.963C132.917 167.726 133.071 167.836 134.483 167.285C136.225 166.624 136.842 166.271 137.856 165.367C140.216 163.251 141.494 159.901 142.906 152.274C144.736 142.156 146.5 136.469 150.16 128.842C153.049 122.802 157.988 114.889 163.566 107.416C167.161 102.589 168.77 100.164 169.829 97.9599C170.711 96.1524 170.711 96.1083 170.336 95.5351C169.762 94.6534 166.058 91.0825 162.971 88.4373C155.584 82.0669 147.867 76.7545 133.512 68.1357C122.068 61.2583 115.012 57.555 105.288 53.2567C92.6979 47.6798 64.3196 37.1212 49.2815 32.3819C44.2321 30.7948 45.1361 30.8609 28.6207 30.8609H13.7149L13.318 29.869C12.8991 28.7669 11.5981 27.4663 10.4515 26.9814C9.43725 26.5626 7.14405 26.6066 6.0636 27.0916ZM9.2829 28.6787C10.3413 29.0314 11.4438 30.1556 11.7084 31.1475C12.3478 33.5061 9.83415 35.997 7.54095 35.2475C5.68875 34.6744 4.56421 32.7567 5.09341 31.1255C5.5344 29.7368 6.92355 28.5685 8.29065 28.4583C8.42295 28.4362 8.86395 28.5464 9.2829 28.6787ZM17.2209 52.2647C18.2793 52.6174 19.3818 53.7416 19.6464 54.7335C20.2858 57.0921 17.7721 59.583 15.4789 58.8335C13.6267 58.2604 12.5022 56.3427 13.0314 54.7115C13.4724 53.3228 14.8615 52.1545 16.2286 52.0443C16.3609 52.0222 16.8019 52.1325 17.2209 52.2647ZM44.5628 57.1142C45.6212 57.4669 46.7237 58.5911 46.9883 59.583C47.6278 61.9416 45.1141 64.4325 42.8209 63.683C40.9687 63.1099 39.8441 61.1921 40.3733 59.561C40.8143 58.1722 42.2035 57.004 43.5706 56.8937C43.7029 56.8717 44.1439 56.9819 44.5628 57.1142ZM114.704 68.9292C115.211 69.3921 115.211 69.9212 114.682 70.4061C114.351 70.7147 113.888 70.7588 111.992 70.7147L109.698 70.6486L109.632 69.9212C109.5 68.5986 109.566 68.5545 112.036 68.5545C113.822 68.5545 114.373 68.6206 114.704 68.9292ZM86.4577 76.7325C87.5161 77.0851 88.6186 78.2093 88.8832 79.2013C89.5227 81.5599 87.009 84.0507 84.7158 83.3013C82.8636 82.7282 81.7391 80.8104 82.2683 79.1792C82.7093 77.7905 84.0984 76.6222 85.4655 76.512C85.5978 76.49 86.0388 76.6002 86.4577 76.7325ZM58.4543 80.0389C59.5127 80.3916 60.6152 81.5158 60.8798 82.5077C61.5192 84.8663 59.0056 87.3572 56.7124 86.6077C54.8602 86.0346 53.7356 84.1169 54.2648 82.4857C54.7058 81.097 56.095 79.9287 57.4621 79.8185C57.5944 79.7964 58.0354 79.9067 58.4543 80.0389ZM65.2898 95.0282C66.3482 95.3809 67.4507 96.505 67.7153 97.497C68.3547 99.8556 65.841 102.346 63.5478 101.597C61.6956 101.024 60.5711 99.1061 61.1003 97.4749C61.5413 96.0862 62.9304 94.9179 64.2975 94.8077C64.4298 94.7857 64.8708 94.8959 65.2898 95.0282ZM95.9392 100.98C96.9976 101.332 98.1001 102.457 98.3647 103.449C99.0042 105.807 96.4905 108.298 94.1973 107.549C92.3451 106.975 91.2205 105.058 91.7497 103.427C92.1907 102.038 93.5799 100.87 94.947 100.759C95.0793 100.737 95.5203 100.848 95.9392 100.98ZM78.2993 111.12C79.3577 111.472 80.4602 112.596 80.7248 113.588C81.3642 115.947 78.8505 118.438 76.5573 117.688C74.7051 117.115 73.5806 115.198 74.1098 113.566C74.5508 112.178 75.9399 111.009 77.307 110.899C77.4393 110.877 77.8803 110.987 78.2993 111.12ZM146.897 122.714C147.404 123.177 147.404 123.706 146.897 124.191C146.522 124.5 145.882 124.544 141.318 124.5L136.158 124.434L136.092 123.706C135.96 122.295 135.761 122.339 141.362 122.339C145.816 122.339 146.544 122.384 146.897 122.714ZM70.3613 124.125C71.4197 124.478 72.5222 125.602 72.7868 126.594C73.4262 128.952 70.9125 131.443 68.6193 130.694C66.7671 130.121 65.6426 128.203 66.1718 126.572C66.6128 125.183 68.0019 124.015 69.369 123.905C69.5013 123.882 69.9423 123.993 70.3613 124.125ZM107.185 129.636C108.243 129.988 109.346 131.113 109.61 132.105C110.25 134.463 107.736 136.954 105.443 136.205C103.591 135.631 102.466 133.714 102.995 132.082C103.436 130.694 104.825 129.525 106.192 129.415C106.325 129.393 106.766 129.503 107.185 129.636ZM87.5602 139.114C88.6186 139.467 89.7211 140.591 89.9857 141.583C90.6252 143.942 88.1115 146.432 85.8183 145.683C83.9661 145.11 82.8416 143.192 83.3708 141.561C83.8118 140.172 85.2009 139.004 86.568 138.894C86.7003 138.872 87.1413 138.982 87.5602 139.114ZM142.266 143.875C142.773 144.338 142.773 144.867 142.244 145.352C141.913 145.661 141.45 145.705 139.554 145.661L137.261 145.595L137.195 144.867C137.062 143.545 137.129 143.501 139.598 143.501C141.384 143.501 141.935 143.567 142.266 143.875ZM96.8212 160.716C97.8796 161.069 98.9821 162.193 99.2467 163.185C99.8862 165.544 97.3725 168.035 95.0793 167.285C93.2271 166.712 92.1025 164.794 92.6317 163.163C93.0727 161.774 94.4619 160.606 95.829 160.496C95.9613 160.474 96.4023 160.584 96.8212 160.716Z" fill="white"/>
</svg>
