<svg width="1281" height="376" viewBox="0 0 1281 376" fill="none" xmlns="http://www.w3.org/2000/svg">
<g style="mix-blend-mode:overlay">
<path fill-rule="evenodd" clip-rule="evenodd" d="M738.327 261.488C573.255 286.243 396.44 246.982 240.013 150.909C238.955 150.259 237.896 149.605 236.838 148.948C168.474 106.548 108.107 55.7704 57.4743 -1.21426L54.2542 4.02873C105.032 60.8914 165.401 111.597 233.724 153.967C234.031 154.158 234.337 154.347 234.642 154.536L234.938 154.719C235.106 154.822 235.274 154.925 235.442 155.029C235.933 155.331 236.426 155.634 236.923 155.94C394.62 252.794 572.972 292.379 739.495 267.405C925.005 239.583 1081.31 133.518 1192.46 -39.2706L1187.18 -42.5112C1076.96 128.794 922.07 233.929 738.327 261.488ZM415.104 -134.5C414.107 -135.112 413.09 -135.744 412.095 -136.365C337.999 -182.753 282.769 -248.716 255.23 -323.199L251.265 -316.744C279.837 -242.859 335.194 -177.538 408.956 -131.357C410.019 -130.691 411.084 -130.03 412.153 -129.373C491.69 -80.5231 581.625 -60.4334 665.801 -72.7952C758.263 -86.3699 836.737 -138.211 893.596 -222.821L888.302 -226.073C763.234 -39.9609 557.415 -47.0958 415.104 -134.5ZM404.798 -117.713C403.798 -118.327 402.792 -118.952 401.794 -119.576C328.601 -165.353 272.784 -229.179 241.936 -301.554L238.115 -295.332C269.81 -223.472 325.739 -160.172 398.662 -114.567C399.722 -113.902 400.781 -113.248 401.847 -112.594C485.986 -60.9174 581.128 -39.6818 670.147 -52.7869C768.076 -67.1971 851.127 -122.233 911.181 -212.021L905.887 -215.272C773.715 -17.6524 555.562 -25.1172 404.798 -117.713ZM391.497 -102.787C392.487 -102.169 393.496 -101.542 394.49 -100.931C553.719 -3.13663 784.199 4.66434 923.466 -204.475L928.761 -201.224C865.51 -106.253 777.888 -48.0284 674.494 -32.7745C580.625 -18.9268 480.276 -41.308 391.538 -95.8087C390.475 -96.4618 389.423 -97.1113 388.366 -97.7746C316.137 -142.904 259.66 -204.481 225.357 -274.559L229.126 -280.697C262.717 -210.141 319.02 -148.068 391.497 -102.787ZM384.183 -84.1488C383.189 -84.7595 382.187 -85.3817 381.198 -86.0001C309.314 -130.871 252.577 -191.457 216.665 -260.408L213.01 -254.456C249.528 -185.915 306.384 -125.735 378.064 -80.9892C379.122 -80.3284 380.17 -79.678 381.231 -79.0265C474.572 -21.6982 580.123 1.82828 678.841 -12.7662C787.702 -28.8583 879.896 -90.2735 946.343 -190.425L941.049 -193.676C794.685 26.9826 551.87 18.8409 384.183 -84.1488ZM370.896 -69.2106C371.878 -68.5969 372.894 -67.9694 373.881 -67.3634C550.024 40.8199 805.17 49.3035 958.629 -182.879L963.923 -179.628C894.283 -74.2943 797.514 -9.68965 683.184 7.24721C579.62 22.5833 468.866 -2.08985 370.924 -62.2442C369.865 -62.8942 368.821 -63.5389 367.765 -64.1982C296.559 -108.614 239.317 -167.563 200.888 -234.719L204.439 -240.501C242.345 -172.992 299.525 -113.725 370.896 -69.2106ZM686.364 21.3358C578.315 37.3642 462.551 11.0184 360.588 -52.4257C289.655 -96.6389 232.097 -154.771 192.457 -220.992L188.904 -215.207C228.998 -149.324 286.684 -91.5275 357.459 -47.4117C358.512 -46.7541 359.556 -46.1094 360.615 -45.4594C463.156 17.5194 579.113 43.3394 687.522 27.2575C807.329 9.48469 908.673 -58.3094 981.505 -168.829L976.229 -172.07C904.33 -63.0401 804.406 3.82354 686.364 21.3358ZM350.285 -35.6403C456.846 30.6201 577.809 58.1203 690.704 41.3476C814.215 22.9973 918.712 -47.0599 993.806 -161.274L999.082 -158.034C923.06 -42.3302 817.14 28.6559 691.861 47.2652C578.608 64.0928 457.443 37.1231 350.305 -28.6787C349.249 -29.3271 348.213 -29.9671 347.157 -30.6263C276.717 -74.5015 218.779 -131.406 177.219 -196.183L180.683 -201.822C221.843 -136.756 279.715 -79.5955 350.285 -35.6403ZM695.038 61.3589C577.302 78.8763 451.146 50.3514 339.977 -18.8555C269.74 -62.5809 211.522 -118.823 169.014 -182.823L165.549 -177.181C208.408 -113.459 266.738 -57.4859 336.846 -13.839L336.906 -13.8018C337.941 -13.1594 338.961 -12.5259 339.994 -11.8913C451.736 56.7381 578.095 84.8483 696.194 67.2831C826.946 47.8281 937.446 -26.3443 1016.66 -147.235L1011.39 -150.475C933.102 -31.075 824.023 42.1711 695.038 61.3589ZM332.78 -0.144981C447.845 70.5255 577.883 99.4662 699.372 81.3702C833.832 61.3448 947.488 -15.0891 1028.97 -139.678L1034.24 -136.438C951.833 -10.3609 836.759 67.0009 700.532 87.2935C577.59 105.606 446.031 76.3464 329.69 4.8925C328.663 4.26196 327.647 3.63081 326.624 2.99537L326.618 2.99211L326.613 2.98878L326.607 2.98535L326.602 2.98185L326.596 2.97828L326.59 2.97464L326.584 2.97093L326.578 2.96702L326.571 2.96305L326.564 2.959L326.558 2.95488L326.551 2.95069L326.544 2.94642C256.686 -40.5183 198.166 -95.7987 154.137 -158.599L157.525 -164.116C201.235 -101.075 259.71 -45.5966 329.665 -2.07224C330.696 -1.42874 331.745 -0.780851 332.78 -0.144981ZM703.708 101.383C576.283 120.385 439.699 89.5677 319.36 14.7115C249.653 -28.6363 190.92 -83.4034 146.128 -145.56L142.74 -140.043C187.814 -78.1181 246.629 -23.558 316.235 19.7312C317.29 20.3863 318.327 21.0263 319.382 21.6747C440.317 95.95 577.087 126.357 704.87 107.304C846.563 86.1756 966.221 5.62231 1051.82 -125.641L1046.55 -128.881C961.871 0.895181 843.639 80.5211 703.708 101.383ZM312.168 33.4211C436.423 109.736 576.869 140.974 708.04 121.397C853.446 99.6933 976.26 16.8827 1064.13 -118.084L1069.4 -114.843C980.609 21.6099 856.375 105.351 709.201 127.313C576.572 147.108 434.603 115.554 309.073 38.4555C308.033 37.8173 307.015 37.1847 305.974 36.5388L305.973 36.5381L305.972 36.5374L305.971 36.5367L305.97 36.5359L305.968 36.5351L305.967 36.5342L305.966 36.5333L305.964 36.5323L305.962 36.5313L305.96 36.5302L305.924 36.5078C236.537 -6.62221 177.48 -60.5463 131.456 -121.671L134.778 -127.08C180.542 -65.7559 239.584 -11.6864 309.049 31.4949C310.086 32.139 311.13 32.7837 312.168 33.4211ZM712.374 141.408C576.353 161.728 430.72 129.346 301.863 50.2049C300.823 49.5659 299.776 48.9196 298.742 48.277C229.462 5.23046 170.272 -48.3173 123.615 -108.905L120.292 -103.493C167.183 -43.0992 226.415 10.2947 295.615 53.2926L295.704 53.3478C296.731 53.9854 297.74 54.6115 298.764 55.2403C428.896 135.165 576.062 167.865 713.534 147.327C866.177 124.524 994.99 37.5926 1086.98 -104.049L1081.7 -107.29C990.645 32.8644 863.253 118.87 712.374 141.408ZM291.552 66.9881C425.002 148.95 575.838 182.479 716.7 161.421C873.055 138.043 1005.03 48.8544 1099.29 -96.4897L1104.56 -93.2491C1009.38 53.5832 875.985 143.698 717.866 167.341C575.551 188.616 423.182 154.768 288.459 72.0241C287.398 71.3725 286.362 70.7325 285.301 70.0743C216.287 27.2085 156.804 -25.6215 109.129 -85.3174L112.452 -90.7291C159.917 -30.8497 219.333 22.1402 288.423 65.0556C289.465 65.7029 290.512 66.3491 291.552 66.9881ZM721.029 181.434C575.326 203.232 419.29 168.558 281.246 83.7745C280.2 83.1324 279.151 82.4846 278.111 81.8388C209.203 39.0523 149.509 -13.3759 101.308 -72.5843L98.0409 -67.2646C146.437 -8.21421 206.141 44.1072 274.99 86.8576C276.05 87.5158 277.089 88.1574 278.153 88.8105C417.472 174.377 575.038 209.371 722.194 187.356C885.788 162.875 1023.76 69.5659 1122.14 -82.4535L1116.86 -85.6941C1019.42 64.8387 882.86 157.222 721.029 181.434ZM267.79 98.6158C411.142 187.596 573.701 224.153 725.355 201.447C892.661 176.397 1033.8 80.8272 1134.44 -74.897L1139.72 -71.6564C1038.15 85.5534 895.593 182.05 726.521 207.367C574.519 230.123 411.764 193.984 267.843 105.591C266.782 104.94 265.733 104.292 264.673 103.633C195.96 60.9813 136.147 9.0503 87.0774 -49.4139L90.3446 -54.7335C139.232 3.88306 199.021 55.929 267.79 98.6158ZM729.683 221.462C574.294 244.74 407.87 207.77 260.631 117.339C260.08 117.001 259.529 116.661 258.978 116.321L258.201 115.842L257.534 115.43L257.48 115.397C188.843 72.8047 128.903 21.1657 79.3826 -36.8853L76.1154 -31.5655C125.801 26.337 185.781 77.8596 254.36 120.413C255.426 121.074 256.47 121.719 257.538 122.375C406.048 213.586 574.005 250.875 730.844 227.378C905.396 201.227 1052.54 101.542 1157.3 -60.8608L1152.02 -64.1014C1048.19 96.8147 902.465 195.572 729.683 221.462ZM247.155 132.168C399.731 226.715 572.659 265.655 734.004 241.472C912.267 214.752 1062.57 112.803 1169.6 -53.3042L1174.88 -50.0637C1066.93 117.529 915.199 220.405 735.171 247.389C573.49 271.626 400.332 233.188 247.228 139.156C246.155 138.496 245.112 137.856 244.039 137.19C175.597 94.732 115.403 43.6446 65.1534 -13.7174L68.4222 -19.0396C118.521 38.4653 178.66 89.6773 247.155 132.168ZM229.706 167.691C390.731 266.589 572.732 306.996 742.649 281.502C931.871 253.109 1091.34 144.782 1204.76 -31.7116L1210.04 -28.471C1095.7 149.51 934.802 258.764 743.817 287.419C572.449 313.132 388.909 272.405 226.613 172.727C225.537 172.066 224.475 171.41 223.399 170.742C155.175 128.443 94.7377 78.0087 43.4602 21.6034L46.6819 16.3578C97.8249 72.8847 158.25 123.396 226.516 165.725C227.576 166.379 228.648 167.041 229.706 167.691ZM746.968 301.514C572.215 327.746 385.008 286.186 219.399 184.473C218.333 183.818 217.261 183.157 216.194 182.498C148.025 140.239 87.5063 90.012 35.8895 33.93L32.6678 39.1755C84.4078 95.1431 144.95 145.286 213.078 187.519C214.153 188.187 215.228 188.851 216.304 189.512C383.199 292.015 571.918 333.887 748.134 307.434C944.601 277.942 1110.08 165.499 1227.61 -17.6754L1222.34 -20.916C1105.73 160.773 941.668 272.286 746.968 301.514ZM209.09 201.258C379.303 305.799 571.686 348.499 751.285 321.53C951.468 291.468 1120.11 176.764 1239.92 -10.1188L1245.19 -6.8783C1124.47 181.491 954.402 297.122 752.451 327.449C571.399 354.635 377.48 311.615 205.997 206.294C204.913 205.628 203.838 204.965 202.755 204.292C134.724 162.125 74.0457 112.29 21.8769 56.7452L25.0986 51.4996C77.1541 107.154 137.797 157.081 205.87 199.273C206.934 199.93 208.024 200.603 209.09 201.258ZM755.602 341.545C571.164 369.25 373.584 325.399 198.783 218.04C197.709 217.381 196.617 216.706 195.544 216.044C127.569 173.922 66.7694 124.315 14.3062 69.0717L11.0845 74.3173C63.6537 129.456 124.497 178.971 192.431 221.068C193.519 221.743 194.598 222.406 195.69 223.076C371.764 331.217 570.88 375.388 756.77 347.462C964.2 316.303 1138.85 197.484 1262.77 3.91885L1257.5 0.678318C1134.5 192.758 961.265 310.649 755.602 341.545ZM188.478 234.824C367.87 345.003 570.639 390.001 759.92 361.56C971.062 329.83 1148.88 208.751 1275.07 11.4738L1280.35 14.7144C1153.24 213.474 973.997 335.484 761.085 367.476C570.357 396.137 366.048 350.819 185.385 239.86C184.283 239.183 183.202 238.519 182.103 237.837C114.268 195.809 53.2369 146.629 0.295254 91.8843L3.51694 86.6388C56.3593 141.488 117.343 190.762 185.219 232.816C186.299 233.482 187.399 234.162 188.478 234.824Z" fill="url(#paint0_linear_2928_467)" fill-opacity="0.64"/>
</g>
<defs>
<linearGradient id="paint0_linear_2928_467" x1="788.377" y1="25.89" x2="532.533" y2="302.969" gradientUnits="userSpaceOnUse">
<stop stop-color="#6366F1"/>
<stop offset="0.43" stop-color="white" stop-opacity="0.57"/>
<stop offset="1" stop-color="#6366F1" stop-opacity="0"/>
</linearGradient>
</defs>
</svg>
